HIERARCHY
ROOT Hips
{
	OFFSET 0.00 0.00 0.00
	CHANNELS 6 Xposition Yposition Zposition Xrotation Yrotation Zrotation
	JOINT Spine
	{
		OFFSET 0.00000 5.19526 0.00000
		CHANNELS 3 Xrotation Yrotation Zrotation
		JOINT Head
		{
			OFFSET 0.00000 15.65388 0.00000
			CHANNELS 3 Xrotation Yrotation Zrotation
			End Site
			{
				OFFSET 0.00000 4.52755 0.00000
			}
		}
		JOINT LeftShoulder
		{
			OFFSET 0.00000 10.32977 0.00000
			CHANNELS 3 Xrotation Yrotation Zrotation
			JOINT LeftArm
			{
				OFFSET 6.99601 0.00000 0.00000
				CHANNELS 3 Xrotation Yrotation Zrotation
				JOINT LeftForeArm
				{
					OFFSET 10.20930 0.00000 0.00000
					CHANNELS 3 Yrotation Zrotation Xrotation
					JOINT LeftHand
					{
						OFFSET 8.56316 0.00000 0.00000
						CHANNELS 3 Xrotation Yrotation Zrotation
						JOINT LeftHandThumb1
						{
							OFFSET 0.00000 0.00000 0.00000
							CHANNELS 3 Xrotation Zrotation Yrotation
							End Site
							{
								OFFSET 0.00000 0.00000 3.93700
							}
						}
						End Site
						{
							OFFSET 3.93700 0.00000 0.00000
						}
					}
				}
			}
		}
		JOINT RightShoulder
		{
			OFFSET 0.00000 10.32977 0.00000
			CHANNELS 3 Xrotation Yrotation Zrotation
			JOINT RightArm
			{
				OFFSET -6.99601 0.00000 0.00000
				CHANNELS 3 Xrotation Yrotation Zrotation
				JOINT RightForeArm
				{
					OFFSET -10.20930 0.00000 0.00000
					CHANNELS 3 Yrotation Zrotation Xrotation
					JOINT RightHand
					{
						OFFSET -8.56316 0.00000 0.00000
						CHANNELS 3 Xrotation Yrotation Zrotation
						JOINT RightHandThumb1
						{
							OFFSET 0.00000 0.00000 0.00000
							CHANNELS 3 Xrotation Zrotation Yrotation
							End Site
							{
								OFFSET 0.00000 0.00000 3.93700
							}
						}
						End Site
						{
							OFFSET -3.93700 0.00000 0.00000
						}
					}
				}
			}
		}
	}
	JOINT LeftUpLeg
	{
		OFFSET 3.35136 0.00000 0.00000
		CHANNELS 3 Xrotation Yrotation Zrotation
		JOINT LeftLeg
		{
			OFFSET 0.00000 -16.34683 0.00000
			CHANNELS 3 Xrotation Yrotation Zrotation
			JOINT LeftFoot
			{
				OFFSET 0.00000 -13.95979 0.00000
				CHANNELS 3 Xrotation Yrotation Zrotation
				JOINT LeftToeBase
				{
					OFFSET 0.00000 -1.33694 4.98954
					CHANNELS 3 Xrotation Yrotation Zrotation
					End Site
					{
						OFFSET 0.00000 0.00000 2.95275
					}
				}
			}
		}
	}
	JOINT RightUpLeg
	{
		OFFSET -3.35136 0.00000 0.00000
		CHANNELS 3 Xrotation Yrotation Zrotation
		JOINT RightLeg
		{
			OFFSET 0.00000 -16.34683 0.00000
			CHANNELS 3 Xrotation Yrotation Zrotation
			JOINT RightFoot
			{
				OFFSET 0.00000 -13.95979 0.00000
				CHANNELS 3 Xrotation Yrotation Zrotation
				JOINT RightToeBase
				{
					OFFSET 0.00000 -1.33694 4.98954
					CHANNELS 3 Xrotation Yrotation Zrotation
					End Site
					{
						OFFSET 0.00000 0.00000 2.95275
					}
				}
			}
		}
	}
}
MOTION
Frames: 13
Frame Time: 0.008333
 -6.3627 31.7933 -6.1829 3.6874 6.9217 2.7471 -5.8261 -6.8279 -5.2229 15.3340 5.8699 2.5017 9.6781 21.9551 19.4114 -37.4232 -2.6282 -35.8306 -9.9876 0.0000 -33.5000 -0.9371 8.3123 6.4548 33.1476 -0.0000 26.2537 -10.1901 -8.9333 -33.3597 -18.3664 11.6213 35.6978 5.9044 -0.0000 23.4647 4.2180 -12.8282 18.3751 32.8623 0.0000 -24.3270 -0.6533 -2.4501 -1.8473 1.9218 -0.0000 -0.0000 -12.5404 24.2050 -11.3462 10.5269 0.0000 -0.0000 3.6901 -4.4796 -2.0519 -3.4864 -0.0000 0.0000 -14.9511 -17.3357 -0.2711 4.2696 0.0000 0.0000
 -6.3664 31.7936 -6.1844 3.6994 6.9178 2.7442 -5.8248 -6.8159 -5.2255 15.3913 5.8532 2.5119 9.6646 21.9481 19.3997 -37.4222 -2.6156 -35.8173 -10.0388 0.0000 -33.5058 -0.9459 8.3346 6.4982 33.1476 -0.0000 26.2537 -10.1634 -8.9681 -33.3697 -18.4548 11.5682 35.7404 5.9320 -0.0000 23.5270 4.1634 -12.7846 18.2088 32.8623 0.0000 -24.3270 -0.7137 -2.4485 -1.8426 2.0224 -0.0000 0.0000 -12.6072 24.2183 -11.3385 10.5521 -0.0000 0.0000 3.6728 -4.4879 -2.0439 -3.4813 -0.0000 -0.0000 -14.9472 -17.3241 -0.2549 4.2625 -0.0000 0.0000
 -6.3704 31.7939 -6.1870 3.7140 6.9186 2.7454 -5.8257 -6.8312 -5.2333 15.4431 5.8561 2.5203 9.6808 21.9746 19.3829 -37.4791 -2.5704 -35.8226 -10.1027 0.0000 -33.4979 -0.9568 8.3419 6.5664 33.1476 -0.0000 26.2537 -10.1603 -8.9584 -33.3526 -18.3682 11.5987 35.7131 5.9979 -0.0000 23.4558 4.1923 -12.9729 18.0827 32.8623 0.0000 -24.3270 -0.7928 -2.4541 -1.8421 2.1524 0.0000 -0.0000 -12.6611 24.2252 -11.3449 10.5083 0.0000 0.0000 3.6471 -4.4891 -2.0417 -3.4687 0.0000 -0.0000 -14.9499 -17.3175 -0.2667 4.2119 0.0000 -0.0000
 -6.3734 31.7949 -6.1910 3.7451 6.9240 2.7519 -5.8432 -6.8538 -5.2462 15.5069 5.8646 2.5243 9.6889 21.9900 19.3574 -37.4847 -2.5267 -35.8084 -10.1989 0.0000 -33.5176 -0.9728 8.3598 6.6612 33.1476 -0.0000 26.2537 -10.1549 -8.9561 -33.3411 -18.3695 11.5884 35.7276 6.0547 -0.0000 23.4476 4.2191 -13.0750 18.0608 32.8623 0.0000 -24.3270 -0.9090 -2.4900 -1.8535 2.3157 0.0000 -0.0000 -12.7457 24.2703 -11.3468 10.5760 -0.0000 -0.0000 3.5992 -4.5146 -2.0499 -3.4491 0.0000 0.0000 -14.9552 -17.2859 -0.2341 4.2662 0.0000 -0.0000
 -6.3787 31.7958 -6.1954 3.7767 6.9264 2.7472 -5.8483 -6.8562 -5.2610 15.5205 5.8487 2.6485 9.7027 22.0270 19.3399 -37.5486 -2.5042 -35.8170 -10.2854 0.0000 -33.4828 -0.9840 8.3437 6.7501 33.1476 -0.0000 26.2537 -10.1292 -9.0019 -33.3176 -18.4447 11.5399 35.7632 6.1182 -0.0000 23.4865 4.1866 -13.0261 17.9921 32.8623 0.0000 -24.3270 -1.0513 -2.4762 -1.8504 2.5378 -0.0000 -0.0000 -12.8440 24.2730 -11.3889 10.6123 -0.0000 -0.0000 3.5645 -4.4773 -2.0438 -3.4560 0.0000 0.0000 -14.9396 -17.3066 -0.2374 4.2573 -0.0000 -0.0000
 -6.3817 31.7967 -6.1989 3.8009 6.9275 2.7520 -5.8450 -6.8585 -5.2686 15.5406 5.8324 2.6492 9.6818 22.0356 19.3235 -37.5739 -2.4377 -35.8213 -10.4110 0.0000 -33.4147 -0.9989 8.3800 6.8225 33.1476 -0.0000 26.2537 -10.1367 -9.0252 -33.3157 -18.4337 11.5325 35.7993 6.1780 -0.0000 23.4548 4.1964 -13.0507 18.0002 32.8623 0.0000 -24.3270 -1.1827 -2.4858 -1.8614 2.7547 0.0000 -0.0000 -12.9498 24.2927 -11.3305 10.6077 0.0000 -0.0000 3.5382 -4.4508 -2.0540 -3.4628 -0.0000 0.0000 -14.9292 -17.3050 -0.2196 4.2473 0.0000 0.0000
 -6.3848 31.7980 -6.2035 3.8395 6.9297 2.7620 -5.8631 -6.8662 -5.2901 15.5767 5.8297 2.6501 9.6792 22.0522 19.3108 -37.5943 -2.3763 -35.8274 -10.5369 0.0000 -33.3854 -1.0093 8.3722 6.8989 33.1476 -0.0000 26.2537 -10.1081 -9.0493 -33.3046 -18.4615 11.4820 35.8516 6.2559 -0.0000 23.4595 4.1929 -13.0382 18.0020 32.8623 0.0000 -24.3270 -1.3450 -2.4747 -1.8798 3.0016 0.0000 0.0000 -13.0560 24.2886 -11.3207 10.5689 -0.0000 -0.0000 3.4937 -4.4428 -2.0747 -3.4668 0.0000 0.0000 -14.9181 -17.2708 -0.1797 4.3229 -0.0000 0.0000
 -6.3881 31.7993 -6.2096 3.8903 6.9321 2.7624 -5.8856 -6.8765 -5.2955 15.6010 5.8290 2.5474 9.6900 22.0683 19.2825 -37.6385 -2.2711 -35.8304 -10.7165 0.0000 -33.3368 -1.0208 8.3507 6.9946 33.1476 -0.0000 26.2537 -10.0753 -9.0742 -33.2934 -18.4650 11.4545 35.8990 6.3142 -0.0000 23.4872 4.1209 -13.0172 17.7375 32.8623 0.0000 -24.3270 -1.5338 -2.5278 -1.8933 3.2721 -0.0000 -0.0000 -13.1870 24.3360 -11.2311 10.4996 -0.0000 0.0000 3.4379 -4.4059 -2.0856 -3.4767 0.0000 -0.0000 -14.8984 -17.2868 -0.1319 4.3377 -0.0000 0.0000
 -6.3909 31.8013 -6.2159 3.9434 6.9354 2.7690 -5.9053 -6.8901 -5.3084 15.5877 5.8386 2.5247 9.7081 22.0941 19.2537 -37.6977 -2.1491 -35.8406 -10.9177 0.0000 -33.2420 -1.0346 8.3428 7.0945 33.1476 -0.0000 26.2537 -10.0381 -9.0922 -33.2692 -18.4299 11.4335 35.9372 6.4028 -0.0000 23.4376 4.1363 -13.1423 17.6438 32.8623 0.0000 -24.3270 -1.7494 -2.6406 -1.9190 3.5905 -0.0000 0.0000 -13.3272 24.4659 -11.1929 10.4524 0.0000 -0.0000 3.3898 -4.3525 -2.1054 -3.5069 -0.0000 -0.0000 -14.8658 -17.3280 -0.0430 4.2922 0.0000 -0.0000
 -6.3928 31.8035 -6.2231 4.0090 6.9343 2.7738 -5.9348 -6.8893 -5.3213 15.5561 5.8214 2.4954 9.6946 22.1154 19.2370 -37.7519 -2.0140 -35.8662 -11.1439 0.0000 -33.1335 -1.0482 8.3299 7.1979 33.1476 -0.0000 26.2537 -10.0760 -9.0864 -33.2325 -18.3071 11.4242 35.9600 6.5031 -0.0000 23.3736 4.1221 -13.1588 17.5666 32.8623 0.0000 -24.3270 -1.9943 -2.6608 -1.9471 3.9564 -0.0000 0.0000 -13.4126 24.5303 -11.3982 10.1856 0.0000 0.0000 3.3271 -4.3014 -2.1278 -3.5369 -0.0000 -0.0000 -14.8218 -17.3453 -0.0022 4.2797 0.0000 0.0000
 -6.3954 31.8060 -6.2321 4.0907 6.9391 2.7724 -5.9668 -6.8875 -5.3392 15.4720 5.7942 2.5790 9.6002 22.1061 19.2768 -37.7352 -1.8282 -35.9087 -11.4163 0.0000 -33.0306 -1.0432 8.2675 7.2170 33.1476 -0.0000 26.2537 -10.0362 -9.1440 -33.1916 -18.3211 11.3672 36.0410 6.6215 -0.0000 23.4526 4.1374 -13.2368 17.5322 32.8623 0.0000 -24.3270 -2.2869 -2.6750 -1.9694 4.3647 -0.0000 -0.0000 -13.6369 24.5255 -11.0850 10.2509 0.0000 0.0000 3.2479 -4.2392 -2.1437 -3.5710 0.0000 0.0000 -14.7759 -17.3868 0.0703 4.2691 0.0000 -0.0000
 -6.3969 31.8086 -6.2430 4.1898 6.9430 2.7678 -6.0159 -6.8798 -5.3394 15.4138 5.7715 2.4460 9.6292 22.1228 19.2263 -37.7916 -1.6736 -35.9170 -11.7441 0.0000 -33.0057 -1.0647 8.2607 7.3705 33.1476 -0.0000 26.2537 -9.9612 -9.2056 -33.1743 -18.3073 11.2818 36.1467 6.7932 -0.0000 23.3812 4.0880 -13.3734 17.1710 32.8623 0.0000 -24.3270 -2.6384 -2.8480 -2.0043 4.8684 -0.0000 -0.0000 -13.7815 24.7399 -11.2453 9.9242 0.0000 0.0000 3.1325 -4.1588 -2.1673 -3.5718 0.0000 -0.0000 -14.7580 -17.4317 0.1164 4.2929 0.0000 0.0000
 -6.3980 31.8115 -6.2534 4.2854 6.9401 2.7740 -6.0562 -6.8504 -5.3656 15.3083 5.7200 2.4913 9.6801 22.1544 19.1917 -37.8693 -1.5098 -35.9444 -12.1220 0.0000 -32.9069 -1.0613 8.2819 7.3285 33.1476 -0.0000 26.2537 -9.8309 -9.3281 -33.1156 -18.3049 11.2520 36.2386 6.9797 -0.0000 23.4252 4.0987 -13.4388 17.1361 32.8623 0.0000 -24.3270 -2.9997 -2.9229 -2.0521 5.3896 0.0000 -0.0000 -14.0760 24.8247 -10.8567 10.0565 -0.0000 0.0000 3.0209 -4.1118 -2.1947 -3.5723 -0.0000 -0.0000 -14.7411 -17.4623 0.1860 4.2601 0.0000 0.0000
